<?xml version="1.0" encoding="UTF-8" standalone="no"?>
<svg
   xmlns:dc="http://purl.org/dc/elements/1.1/"
   xmlns:cc="http://creativecommons.org/ns#"
   xmlns:rdf="http://www.w3.org/1999/02/22-rdf-syntax-ns#"
   xmlns:svg="http://www.w3.org/2000/svg"
   xmlns="http://www.w3.org/2000/svg"
   xmlns:sodipodi="http://sodipodi.sourceforge.net/DTD/sodipodi-0.dtd"
   xmlns:inkscape="http://www.inkscape.org/namespaces/inkscape"
   version="1.1"
   id="svg2"
   viewBox="0 0 320 256"
   height="256"
   width="320"
   inkscape:version="0.91 r13725"
   sodipodi:docname="donate.svg"
   inkscape:export-filename="/home/daniel/offline.png"
   inkscape:export-xdpi="90"
   inkscape:export-ydpi="90">
  <sodipodi:namedview
     pagecolor="#ffffff"
     bordercolor="#666666"
     borderopacity="1"
     objecttolerance="10"
     gridtolerance="10"
     guidetolerance="10"
     inkscape:pageopacity="0"
     inkscape:pageshadow="2"
     inkscape:window-width="3200"
     inkscape:window-height="1688"
     id="namedview9"
     showgrid="false"
     inkscape:zoom="1"
     inkscape:cx="407.5"
     inkscape:cy="160"
     inkscape:window-x="0"
     inkscape:window-y="60"
     inkscape:window-maximized="1"
     inkscape:current-layer="svg2"
     fit-margin-top="0"
     fit-margin-left="0"
     fit-margin-right="0"
     fit-margin-bottom="0">
    <inkscape:grid
       type="xygrid"
       id="grid4231" />
  </sodipodi:namedview>
  <defs
     id="defs4" />
  <metadata
     id="metadata7">
    <rdf:RDF>
      <cc:Work
         rdf:about="">
        <dc:format>image/svg+xml</dc:format>
        <dc:type
           rdf:resource="http://purl.org/dc/dcmitype/StillImage" />
        <dc:title></dc:title>
      </cc:Work>
    </rdf:RDF>
  </metadata>
  <path
     style="color:#000000;clip-rule:nonzero;display:inline;overflow:visible;visibility:visible;opacity:1;isolation:auto;mix-blend-mode:normal;color-interpolation:sRGB;color-interpolation-filters:linearRGB;solid-color:#000000;solid-opacity:1;fill:#000000;fill-opacity:1;fill-rule:nonzero;stroke:none;stroke-width:1;stroke-linecap:butt;stroke-linejoin:miter;stroke-miterlimit:4;stroke-dasharray:none;stroke-dashoffset:0;stroke-opacity:1;marker:none;color-rendering:auto;image-rendering:auto;shape-rendering:auto;text-rendering:auto;enable-background:accumulate"
     d="m 128,0 0,16 0,224 0,16 64,0 0,-16 0,-224 0,-16 -16,0 -32,0 -16,0 z m 16,16 32,0 0,224 -32,0 0,-224 z"
     id="rect4242-6"
     inkscape:connector-curvature="0" />
  <rect
     style="color:#000000;clip-rule:nonzero;display:inline;overflow:visible;visibility:visible;opacity:1;isolation:auto;mix-blend-mode:normal;color-interpolation:sRGB;color-interpolation-filters:linearRGB;solid-color:#000000;solid-opacity:1;fill:#c39e80;fill-opacity:1;fill-rule:nonzero;stroke:none;stroke-width:1;stroke-linecap:butt;stroke-linejoin:miter;stroke-miterlimit:4;stroke-dasharray:none;stroke-dashoffset:0;stroke-opacity:1;marker:none;color-rendering:auto;image-rendering:auto;shape-rendering:auto;text-rendering:auto;enable-background:accumulate"
     id="rect4236"
     width="32"
     height="224"
     x="144"
     y="16" />
  <rect
     style="color:#000000;clip-rule:nonzero;display:inline;overflow:visible;visibility:visible;opacity:1;isolation:auto;mix-blend-mode:normal;color-interpolation:sRGB;color-interpolation-filters:linearRGB;solid-color:#000000;solid-opacity:1;fill:#f0f0f0;fill-opacity:1;fill-rule:nonzero;stroke:none;stroke-width:2;stroke-linecap:butt;stroke-linejoin:miter;stroke-miterlimit:4;stroke-dasharray:none;stroke-dashoffset:0;stroke-opacity:1;marker:none;color-rendering:auto;image-rendering:auto;shape-rendering:auto;text-rendering:auto;enable-background:accumulate"
     id="rect4238"
     width="16"
     height="224"
     x="144"
     y="16" />
  <rect
     style="color:#000000;clip-rule:nonzero;display:inline;overflow:visible;visibility:visible;opacity:1;isolation:auto;mix-blend-mode:normal;color-interpolation:sRGB;color-interpolation-filters:linearRGB;solid-color:#000000;solid-opacity:1;fill:#f0f0f0;fill-opacity:1;fill-rule:nonzero;stroke:none;stroke-width:2;stroke-linecap:butt;stroke-linejoin:miter;stroke-miterlimit:4;stroke-dasharray:none;stroke-dashoffset:0;stroke-opacity:1;marker:none;color-rendering:auto;image-rendering:auto;shape-rendering:auto;text-rendering:auto;enable-background:accumulate"
     id="rect4234"
     width="256"
     height="144"
     x="32"
     y="47.999763" />
  <path
     style="color:#000000;clip-rule:nonzero;display:inline;overflow:visible;visibility:visible;opacity:1;isolation:auto;mix-blend-mode:normal;color-interpolation:sRGB;color-interpolation-filters:linearRGB;solid-color:#000000;solid-opacity:1;fill:#f0cfb5;fill-opacity:1;fill-rule:nonzero;stroke:none;stroke-width:1;stroke-linecap:butt;stroke-linejoin:miter;stroke-miterlimit:4;stroke-dasharray:none;stroke-dashoffset:0;stroke-opacity:1;marker:none;color-rendering:auto;image-rendering:auto;shape-rendering:auto;text-rendering:auto;enable-background:accumulate"
     d="m 272,48 0,32 -16,0 0,16 16,0 0,80 -208,0 0,-16 -32,0 0,32 32,0 208,0 16,0 0,-144 -16,0 z"
     id="rect4288"
     inkscape:connector-curvature="0" />
  <path
     style="font-style:normal;font-weight:normal;font-size:40px;line-height:125%;font-family:sans-serif;letter-spacing:0px;word-spacing:0px;fill:#000000;fill-opacity:1;stroke:none;stroke-width:1px;stroke-linecap:butt;stroke-linejoin:miter;stroke-opacity:1"
     d="m 57.1875,104.6875 0,30.625 21.875,0 0,-4.375 4.375,0 0,-4.375 4.375,0 0,-13.125 -4.375,0 0,-4.375 -4.375,0 0,-4.375 z m 39.375,0 0,4.375 -4.375,0 0,21.875 4.375,0 0,4.375 21.875,0 0,-4.375 4.375,0 0,-21.875 -4.375,0 0,-4.375 z m 30.625,0 0,30.625 8.75,0 0,-13.125 4.375,0 0,4.375 4.375,0 0,4.375 4.375,0 0,4.375 8.75,0 0,-30.625 -8.75,0 0,13.125 -4.375,0 0,-4.375 -4.375,0 0,-4.375 -4.375,0 0,-4.375 z m 43.75,0 0,4.375 -4.375,0 0,4.375 -4.375,0 0,21.875 8.75,0 0,-8.75 13.125,0 0,8.75 8.75,0 0,-21.875 -4.375,0 0,-4.375 -4.375,0 0,-4.375 z m 30.625,0 0,4.375 8.75,0 0,26.25 8.75,0 0,-26.25 8.75,0 0,-4.375 z m 30.625,0 0,30.625 30.625,0 0,-4.375 -21.875,0 0,-8.75 17.5,0 0,-4.375 -17.5,0 0,-8.75 21.875,0 0,-4.375 z m -166.25,4.375 8.75,0 0,4.375 4.375,0 0,13.125 -4.375,0 0,4.375 -8.75,0 z m 35,0 13.125,0 0,21.875 -13.125,0 z m 74.375,0 4.375,0 0,4.375 4.375,0 0,8.75 -13.125,0 0,-8.75 4.375,0 z"
     id="text4349"
     inkscape:connector-curvature="0"
     sodipodi:nodetypes="ccccccccccccccccccccccccccccccccccccccccccccccccccccccccccccccccccccccccccccccccccccccccccccccccccccccccccccc" />
  <path
     style="color:#000000;clip-rule:nonzero;display:inline;overflow:visible;visibility:visible;opacity:1;isolation:auto;mix-blend-mode:normal;color-interpolation:sRGB;color-interpolation-filters:linearRGB;solid-color:#000000;solid-opacity:1;fill:#000000;fill-opacity:1;fill-rule:nonzero;stroke:none;stroke-width:1;stroke-linecap:butt;stroke-linejoin:miter;stroke-miterlimit:4;stroke-dasharray:none;stroke-dashoffset:0;stroke-opacity:1;marker:none;color-rendering:auto;image-rendering:auto;shape-rendering:auto;text-rendering:auto;enable-background:accumulate"
     d="m 16,32 0,16 0,112 16,0 0,-112 256,0 0,32 -16,0 0,16 16,0 0,96 -256,0 0,-16 -16,0 0,32 16,0 256,0 16,0 0,-160 0,-16 -288,0 z m 16,144 16,0 0,-16 -16,0 0,16 z"
     id="rect4240"
     inkscape:connector-curvature="0" />
</svg>
